<?xml version="1.0" standalone="yes"?>
<svg xmlns="http://www.w3.org/2000/svg" width="43" height="41">
<path style="fill:#3e465b; stroke:none;" d="M17.2942 7.87603C11.3636 10.4809 16.1257 19.7102 21.7842 16.7762C27.5034 13.8108 23.1628 5.29836 17.2942 7.87603M8.78524 16.2467C6.39905 18.0485 8.55451 22.7627 11.2932 20.7533C13.6115 19.0525 11.3728 14.2927 8.78524 16.2467M27.7852 16.2467C25.399 18.0485 27.5545 22.7627 30.2932 20.7533C32.6115 19.0525 30.3728 14.2927 27.7852 16.2467M13 35L27 35C26.9638 17.4066 13.0023 17.1702 13 35M8 24C5.50155 27.678 5.03674 30.6047 5 35L9 35C8.9996 31.2669 9.31609 27.5215 8 24M30 24L30 35L34 35C33.9599 30.2855 33.611 27.2461 30 24z"/>
</svg>
